<svg id="Layer_1" height="16" width="16" data-name="Layer 1" xmlns="http://www.w3.org/2000/svg" viewBox="0 0 22.06 21.6"><title>add</title><path d="M12.65,11.66a.64.64,0,0,1,.16.77.67.67,0,0,1-.66.45H7.88l2.24,5.31a.7.7,0,0,1,0,.55.72.72,0,0,1-.38.39l-2,.84a.7.7,0,0,1-.55,0,.72.72,0,0,1-.39-.38l-2.13-5L1.22,18a.69.69,0,0,1-.5.21.69.69,0,0,1-.27-.06A.67.67,0,0,1,0,17.52V.74A.67.67,0,0,1,.45.08.69.69,0,0,1,.71,0a.66.66,0,0,1,.5.21Z"/><path d="M22.06,16.22v1.29a.64.64,0,0,1-.64.64H18.63v2.79a.64.64,0,0,1-.64.64H16.7a.64.64,0,0,1-.64-.64V18.15H13.27a.64.64,0,0,1-.64-.64V16.22a.64.64,0,0,1,.64-.64h2.79V12.79a.64.64,0,0,1,.64-.64H18a.64.64,0,0,1,.64.64v2.79h2.79a.64.64,0,0,1,.64.64Z"/></svg>