<svg id="Layer_1" height="16" width="16" data-name="Layer 1" xmlns="http://www.w3.org/2000/svg" viewBox="0 0 22.05 20.16"><title>remove</title><path d="M22.05,16.31v1.29a.64.64,0,0,1-.64.64H13.27a.64.64,0,0,1-.64-.64V16.31a.64.64,0,0,1,.64-.64h8.14a.64.64,0,0,1,.64.64Z"/><path d="M12.64,11.75a.63.63,0,0,1,.16.77.67.67,0,0,1-.66.45H7.88l2.24,5.31a.69.69,0,0,1,0,.55.72.72,0,0,1-.38.39l-2,.84a.7.7,0,0,1-.55,0,.72.72,0,0,1-.39-.38l-2.13-5L1.22,18.11a.69.69,0,0,1-.77.16A.67.67,0,0,1,0,17.61V.82A.67.67,0,0,1,.45.16.69.69,0,0,1,.71.11a.66.66,0,0,1,.5.21Z"/></svg>